<svg width="58" height="58" viewBox="0 0 58 58" fill="none" xmlns="http://www.w3.org/2000/svg">
<path d="M29.2065 57.3224C13.5755 57.3224 0.89978 44.6466 0.89978 29.0156C0.89978 13.3846 13.5755 0.708862 29.2065 0.708862C44.8375 0.708862 57.5133 13.3846 57.5133 29.0156C57.5133 44.6466 44.8375 57.3224 29.2065 57.3224Z" fill="#02A9DC"/>
<path d="M25.3643 34.6033V23.4277L35.1868 29.0155L25.3643 34.6033ZM47.2228 19.9064C46.7926 18.2759 45.5188 16.9965 43.8996 16.5605C40.967 15.7679 29.2141 15.7679 29.2141 15.7679C29.2141 15.7679 17.4554 15.7679 14.5285 16.5605C12.9094 16.9965 11.6356 18.2759 11.2053 19.9064C10.4127 22.856 10.4127 29.0155 10.4127 29.0155C10.4127 29.0155 10.4127 35.175 11.1996 38.1246C11.6299 39.7551 12.9037 41.0345 14.5229 41.4705C17.4554 42.2631 29.2084 42.2631 29.2084 42.2631C29.2084 42.2631 40.967 42.2631 43.894 41.4705C45.5131 41.0345 46.7869 39.7551 47.2172 38.1246C48.0041 35.175 48.0041 29.0155 48.0041 29.0155C48.0041 29.0155 48.0041 22.856 47.2228 19.9064Z" fill="white"/>
</svg>
