<svg width="58" height="58" viewBox="0 0 58 58" fill="none" xmlns="http://www.w3.org/2000/svg">
<rect width="58" height="58" fill="#1E1E1E"/>
<g id="Frame 1" clip-path="url(#clip0_0_1)">
<rect width="1920" height="2041" transform="translate(-903 -1651)" fill="white"/>
<g id="Frame 1000003241">
<g id="Footer">
<g id="Frame 1000003211">
<rect width="1920" height="175.134" transform="translate(-903 -77.6925)" fill="white"/>
<g id="Frame 1000003206">
<g id="Frame 1000003207">
<g id="Frame 1000001426">
<g id="Group 1000001329">
<path id="Vector" d="M28.7657 57.3224C13.1329 57.3224 0.458984 44.6485 0.458984 29.0156C0.458984 13.3818 13.1329 0.708862 28.7657 0.708862C44.3986 0.708862 57.0725 13.3818 57.0725 29.0156C57.0725 44.6485 44.3986 57.3224 28.7657 57.3224Z" fill="#02A9DC"/>
<path id="Vector_2" d="M24.7708 44.413H31.1341V29.0122H35.3792L35.9416 23.7056H31.1341L31.1407 21.0486C31.1407 19.6653 31.2728 18.9227 33.2581 18.9227H35.9114V13.6152H31.6653C26.5654 13.6152 24.7708 16.1902 24.7708 20.5193V23.7056H21.5919V29.0132H24.7708V44.413Z" fill="white"/>
</g>
</g>
</g>
</g>
</g>
</g>
</g>
</g>
<defs>
<clipPath id="clip0_0_1">
<rect width="1920" height="2041" fill="white" transform="translate(-903 -1651)"/>
</clipPath>
</defs>
</svg>
